<svg width="14" height="14" viewBox="0 0 14 14" fill="none" xmlns="http://www.w3.org/2000/svg">
<path d="M7 12.3333C8.41449 12.3333 9.77105 11.7713 10.7712 10.7712C11.7714 9.77096 12.3333 8.41441 12.3333 6.99992C12.3333 5.58543 11.7714 4.22888 10.7712 3.22868C9.77105 2.22849 8.41449 1.66659 7 1.66659C5.58551 1.66659 4.22896 2.22849 3.22877 3.22868C2.22857 4.22888 1.66667 5.58543 1.66667 6.99992C1.66667 8.41441 2.22857 9.77096 3.22877 10.7712C4.22896 11.7713 5.58551 12.3333 7 12.3333ZM7 0.333252C7.87548 0.333252 8.74239 0.50569 9.55123 0.840722C10.3601 1.17575 11.095 1.66682 11.714 2.28587C12.3331 2.90493 12.8242 3.63986 13.1592 4.4487C13.4942 5.25753 13.6667 6.12444 13.6667 6.99992C13.6667 8.76803 12.9643 10.4637 11.714 11.714C10.4638 12.9642 8.76811 13.6666 7 13.6666C3.31334 13.6666 0.333336 10.6666 0.333336 6.99992C0.333336 5.23181 1.03571 3.53612 2.28596 2.28587C3.5362 1.03563 5.23189 0.333252 7 0.333252ZM7.33334 3.66659V7.16659L10.3333 8.94659L9.83334 9.76659L6.33334 7.66659V3.66659H7.33334Z" fill="#595959"/>
</svg>
