<svg width="16" height="16" viewBox="0 0 16 16" fill="none" xmlns="http://www.w3.org/2000/svg">
<g clip-path="url(#clip0_302_29)">
<path d="M7.99999 15.3334C7.82318 15.3334 7.65361 15.2632 7.52859 15.1382C7.40356 15.0131 7.33332 14.8436 7.33332 14.6667V12.6667H4.66666C4.31303 12.6667 3.9739 12.5263 3.72385 12.2762C3.4738 12.0262 3.33332 11.687 3.33332 11.3334V4.66675C3.33332 4.31313 3.4738 3.97399 3.72385 3.72394C3.9739 3.47389 4.31303 3.33341 4.66666 3.33341H14C14.3536 3.33341 14.6928 3.47389 14.9428 3.72394C15.1928 3.97399 15.3333 4.31313 15.3333 4.66675V11.3334C15.3333 11.687 15.1928 12.0262 14.9428 12.2762C14.6928 12.5263 14.3536 12.6667 14 12.6667H11.2667L8.79999 15.1401C8.66666 15.2667 8.49999 15.3334 8.33332 15.3334H7.99999ZM8.66666 11.3334V13.3867L10.72 11.3334H14V4.66675H4.66666V11.3334H8.66666ZM1.99999 10.0001H0.666656V2.00008C0.666656 1.64646 0.807132 1.30732 1.05718 1.05727C1.30723 0.807224 1.64637 0.666748 1.99999 0.666748H12.6667V2.00008H1.99999V10.0001Z" fill="#595959"/>
</g>
<defs>
<clipPath id="clip0_302_29">
<rect width="16" height="16" fill="white"/>
</clipPath>
</defs>
</svg>
