<svg width="16" height="14" viewBox="0 0 16 14" fill="none" xmlns="http://www.w3.org/2000/svg">
<path d="M1.99999 1.66659V9.66658H14V1.66659H1.99999ZM1.99999 0.333252H14C14.3536 0.333252 14.6928 0.473728 14.9428 0.723776C15.1928 0.973825 15.3333 1.31296 15.3333 1.66659V9.66658C15.3333 10.0199 15.1933 10.3599 14.94 10.6066C14.6933 10.8599 14.3533 10.9999 14 10.9999H9.33332V12.3333H10.6667V13.6666H5.33332V12.3333H6.66666V10.9999H1.99999C1.64666 10.9999 1.30666 10.8599 1.05999 10.6066C0.806657 10.3599 0.666656 10.0199 0.666656 9.66658V1.66659C0.666656 0.926585 1.25999 0.333252 1.99999 0.333252ZM7.22666 4.95325C7.43332 4.75325 7.71332 4.63325 7.99999 4.63325C8.28666 4.63992 8.56666 4.75325 8.77332 4.95992C8.97332 5.15992 9.09332 5.43992 9.09332 5.72658C9.09332 6.01992 8.97332 6.29325 8.77332 6.49992C8.56666 6.70658 8.28666 6.81992 7.99999 6.81992C7.71332 6.81992 7.43332 6.69992 7.22666 6.49992C7.02666 6.29325 6.90666 6.01992 6.90666 5.72658C6.90666 5.43992 7.02666 5.15992 7.22666 4.95325ZM6.71332 6.99992C6.87995 7.173 7.07978 7.31069 7.30087 7.40473C7.52195 7.49878 7.75974 7.54726 7.99999 7.54726C8.24024 7.54726 8.47803 7.49878 8.69911 7.40473C8.9202 7.31069 9.12003 7.173 9.28666 6.99992C9.62666 6.66658 9.81999 6.20658 9.81999 5.72658C9.81999 5.24658 9.62666 4.77992 9.28666 4.43992C8.94666 4.09992 8.47999 3.90659 7.99999 3.90659C7.51999 3.90659 7.05332 4.09992 6.71332 4.43992C6.37332 4.77992 6.17999 5.24658 6.17999 5.72658C6.17999 6.20658 6.37332 6.66658 6.71332 6.99992ZM3.99999 5.72658C4.31591 4.92304 4.86641 4.23321 5.57984 3.74689C6.29326 3.26057 7.13657 3.00029 7.99999 2.99992C9.81999 2.99992 11.3733 4.13325 12 5.72658C11.6863 6.53167 11.1364 7.22299 10.4224 7.70965C9.70851 8.19632 8.86401 8.45554 7.99999 8.45325C6.17999 8.45325 4.62666 7.33325 3.99999 5.72658Z" fill="#595959"/>
</svg>
